# xmcd
#
# Track frame offsets:
# 150
# 23405
# 40862
# 65587
# 89062
# 113172
# 133677
# 157162
# 174925
#
# Disc length: 2507 seconds
#
#
# Revision: 0
# Processed by: cddbd v1.4PL0 Copyright (c) Steve Scherf et al.
# Submitted via: FreeRIP 2.52 
#
DISCID=7309c909
DTITLE=Auger York Farlowe - Olympic Rock and Blues Circus
DYEAR=1998
DGENRE=Acoustic
TTITLE0=New Orleans Street
TTITLE1=I Never Loved A Girl (The Way That I Love You)
TTITLE2=Motorboat
TTITLE3=The Devil Rides The Speed Boat
TTITLE4=Crocodile Or: I Don't Think I Can Keep My Mouth Open For That Long
TTITLE5=Everything's Wrong
TTITLE6=Fast And Loose
TTITLE7=Another Song
TTITLE8=Wade In The Water
EXTD=Jeton JET 60 003
EXTT0=
EXTT1=
EXTT2=
EXTT3=
EXTT4=
EXTT5=
EXTT6=
EXTT7=
EXTT8=
PLAYORDER=
